<svg xmlns="http://www.w3.org/2000/svg" version="1.1" xmlns:xlink="http://www.w3.org/1999/xlink" xmlns:svgjs="http://svgjs.dev/svgjs" width="100%" height="100%" viewBox="0 0 1000 600"><rect width="1000" height="600" x="0" y="0" fill="#ffffff"/><g><rect width="333.3333333333333" height="333.3333333333333" rx="13.333333333333334" ry="13.333333333333334" y="230.40878948654236" fill="#8aaae5" transform="matrix(0.6004228759552137,0,0,0.6004228759552137,0,61.58679509335275)" x="208.18655395507812"/><path d="M346.0048379843158 472.0754413048382L346.0048379843158 472.0754413048382Q337.468958379811 472.0754413048382 324.7374769358039 461.86132096453247L324.7374769358039 461.86132096453247Q315.79650473989886 460.4145617095317 309.4307640178953 458.0129413462303Q303.0939584809917 455.611320982929 298.9272918265894 452.2837746964271L298.9272918265894 452.2837746964271Q293.0823844363861 447.27798767412435 288.71317148628367 438.94465436531965Q284.3439585361812 430.61132105651495 284.3439585361812 422.91456181991066L284.3439585361812 422.91456181991066Q284.3439585361812 417.0696544297074 287.0349307504827 412.4978951839048L287.0349307504827 412.4978951839048Q293.28493073208625 401.4446544756986 302.8624770001916 401.4446544756986L302.8624770001916 401.4446544756986Q310.1541436453957 401.4446544756986 311.4272917897964 413.7421081432055L311.4272917897964 413.7421081432055Q312.8740510447972 425.20044144281195 313.79997696799774 431.97127475621573Q314.75483807629826 438.7421080696195 315.36247696339865 440.8254413968207L315.36247696339865 440.8254413968207Q318.48747695420036 451.03956173712646 326.0106250802046 458.1286820866304L326.0106250802046 458.1286820866304Q334.7490509804095 459.9805339330314 344.9631713207152 459.9805339330314L344.9631713207152 459.9805339330314Q367.4458101434278 459.9805339330314 388.0765971197394 451.4446543285266L388.0765971197394 451.4446543285266Q396.84395820504426 447.71201545062456 405.17729151384896 441.66456176472116Q413.51062482265365 435.61710807881775 418.9215044363567 428.32544143361366Q424.3323840500597 421.0337747884096 424.3323840500597 414.14720073460575L424.3323840500597 414.14720073460575Q424.3323840500597 404.36710817080024 407.02914336025003 398.95622855709723L407.02914336025003 398.95622855709723L370.36826383852946 390.62289524829254Q359.1124768346232 388.1055341445911 352.34164352121934 381.7687286076876Q345.57081020781555 375.402987885684 345.57081020781555 367.27220087257945L345.57081020781555 367.27220087257945Q345.57081020781555 354.77220090937243 361.1958101618243 342.2722009461654L361.1958101618243 342.2722009461654Q369.1240508792288 335.8196546688618 379.7432638109347 331.3347009783593Q390.36247674264064 326.87868247295677 402.1390970783473 324.47706210965544Q413.9157174140539 322.0754417463541 424.7374766414599 322.0754417463541L424.7374766414599 322.0754417463541Q440.1599302997686 322.0754417463541 451.09743026757474 326.87868247295677Q462.03493023538084 331.6529880144595 464.7548376347824 340.8254416911646L464.7548376347824 340.8254416911646Q465.36247652188274 342.90877501836576 465.36247652188274 345.3972009369672L465.36247652188274 345.3972009369672Q465.36247652188274 358.12868238097434 452.65993026297565 363.1055342181771L452.65993026297565 363.1055342181771Q444.96317102637124 366.2305342089789 439.5522914126683 366.2305342089789L439.5522914126683 366.2305342089789Q436.1958099410664 366.2305342089789 434.3439580946653 364.98632124967816L434.3439580946653 364.98632124967816Q433.90993031816504 364.58122865827795 433.90993031816504 363.9446545860776L433.90993031816504 363.9446545860776Q433.90993031816504 362.4978953310768 439.75483770836837 362.29534903537666L439.75483770836837 362.29534903537666Q443.28493029057034 362.0638675545765 445.57080991347163 361.6587749631763Q447.88562472147294 361.25368237177605 448.9272913850735 360.81965459527584L448.9272913850735 360.81965459527584Q456.82659691737797 356.6529879408735 456.82659691737797 348.52220092776895L456.82659691737797 348.52220092776895Q456.82659691737797 344.35553427336663 454.5407172944766 339.78377502756405L454.5407172944766 339.78377502756405Q448.08817101717307 327.9203491365574 422.24905072285856 327.9203491365574L422.24905072285856 327.9203491365574Q412.8740507504533 327.9203491365574 402.8624767058477 329.8879417233585Q392.87983784634207 331.8555343101596 383.909930465337 335.73284911356177Q374.96895826943205 339.5812287318639 368.7189582878285 345.3972009369672L368.7189582878285 345.3972009369672Q357.86826387532244 355.4087749815728 357.86826387532244 363.33701569897727L357.86826387532244 363.33701569897727Q357.86826387532244 369.3555341997806 363.79997682082575 374.04303418598323Q369.7606249514291 378.73053417218586 381.82659713813587 381.04534898018716L381.82659713813587 381.04534898018716L406.42150447314964 385.61710822598974Q420.5708099870576 388.33701562539125 429.3381710723625 393.6321544986942Q438.0765969725674 398.95622855709723 438.0765969725674 409.7779877845033L438.0765969725674 409.7779877845033Q438.0765969725674 419.3555340526087 433.30229143106476 427.6888673614133Q428.4990507044621 436.022200670218 420.4840044317575 442.59048768792167Q412.46895815905305 449.1587747056254 402.2548378187473 453.5279876557278L402.2548378187473 453.5279876557278Q379.13562492383437 463.74210799603355 347.6541435350167 463.74210799603355L347.6541435350167 463.74210799603355Q343.7189583614145 463.74210799603355 339.7548380027123 463.5395617003334Q335.7907176440101 463.3370154046333 332.02914358100793 462.9029876281331L332.02914358100793 462.9029876281331Q334.9515972761096 464.58122836393403 339.4365509666121 466.2305339146349Q343.9215046571146 467.9087746504359 349.7374768622179 469.3555339054367L349.7374768622179 469.3555339054367Q350.3740509344183 469.5870153862368 350.3740509344183 470.19465427333716L350.3740509344183 470.19465427333716Q350.3740509344183 472.0754413048382 346.0048379843158 472.0754413048382ZM318.48747695420036 456.04534875942926L318.48747695420036 456.04534875942926Q312.8740510447972 449.7953487778257 309.74905105399546 443.11132101972197L309.74905105399546 443.11132101972197Q305.1772918081929 432.69465438371617 302.8624770001916 417.50368220620766L302.8624770001916 417.50368220620766Q301.2131714494907 406.4504414980014 299.3323844179896 406.4504414980014L299.3323844179896 406.4504414980014Q297.6541436821887 406.4504414980014 294.8474307274871 408.9388674166028Q292.04071777278557 411.45622852030425 292.04071777278557 419.58701553340876L292.04071777278557 419.58701553340876Q292.04071777278557 435.4145617831177 303.29650477669185 447.0754413784242L303.29650477669185 447.0754413784242Q308.909930686095 452.92034876862743 318.48747695420036 456.04534875942926Z " fill="#ffffff" transform="matrix(0.6004228759552137,0,0,0.6004228759552137,0,61.58679509335275)"/><path d="M676.9870312689342 468.27518382912365L676.9870312689342 468.27518382912365Q669.7700091620804 468.27518382912365 659.0056372060953 459.6392217826174L659.0056372060953 459.6392217826174Q651.4461123551876 458.41599769671 646.063926377195 456.3854457141037Q640.7062048809206 454.3548937314974 637.1833195135073 451.5414783339104L637.1833195135073 451.5414783339104Q632.2414942064414 447.3091229966708 628.5473574670011 440.26335226184415Q624.8532207275607 433.2175815270175 624.8532207275607 426.7100293899901L624.8532207275607 426.7100293899901Q624.8532207275607 421.7682040829242 627.1284175273485 417.90281597145685L627.1284175273485 417.90281597145685Q632.4127455784685 408.5573839551243 640.5104890271755 408.5573839551243L640.5104890271755 408.5573839551243Q646.6755384201488 408.5573839551243 647.7519756157473 418.9547886853372L647.7519756157473 418.9547886853372Q648.9751997016547 428.6427234457238 649.7580631166354 434.3674121677705Q650.5653910133343 440.0921008898171 651.0791451294153 441.8535435735238L651.0791451294153 441.8535435735238Q653.7213091549754 450.48950562003 660.082074401694 456.4833036409763L660.082074401694 456.4833036409763Q667.4703478805745 458.0490304709378 676.1063099270808 458.0490304709378L676.1063099270808 458.0490304709378Q695.1152122220819 458.0490304709378 712.5583876871215 450.83200836408406L712.5583876871215 450.83200836408406Q719.9711256477203 447.676090222443 727.0168963825469 442.56301354335005Q734.0626671173735 437.4499368642571 738.6375251986672 431.2848874712838Q743.2123832799609 425.1198380783105 743.2123832799609 419.2972914293913L743.2123832799609 419.2972914293913Q743.2123832799609 411.02829660865723 728.5826232125083 406.4534385273636L728.5826232125083 406.4534385273636L697.5861248756148 399.4076677925369Q688.0694414872553 397.27925788305805 682.3447527652086 391.9215363867836Q676.620064043162 386.53935040879105 676.620064043162 379.66483104599143L676.620064043162 379.66483104599143Q676.620064043162 369.09617494375146 689.8308841709619 358.52751884151155L689.8308841709619 358.52751884151155Q696.5341521617345 353.07193941836454 705.5126169522948 349.2799447520516Q714.4910817428552 345.5124145674568 724.4481258021414 343.4818625848505Q734.4051698614276 341.45131060224423 743.554886024015 341.45131060224423L743.554886024015 341.45131060224423Q756.5944547797878 341.45131060224423 765.8420288692478 345.5124145674568Q775.0896029587078 349.5490540509512 777.3892642402137 357.30429475560413L777.3892642402137 357.30429475560413Q777.9030183562948 359.0657374393108 777.9030183562948 361.1696828670716L777.9030183562948 361.1696828670716Q777.9030183562948 371.93405482305667 767.1631108820278 376.1419456785781L767.1631108820278 376.1419456785781Q760.6555587450005 378.78410970413813 756.0807006637068 378.78410970413813L756.0807006637068 378.78410970413813Q753.2428207844016 378.78410970413813 751.6770939544401 377.73213699025774L751.6770939544401 377.73213699025774Q751.3101267286679 377.3896342462037 751.3101267286679 376.85141564840444L751.3101267286679 376.85141564840444Q751.3101267286679 375.628191562497 756.2519520357338 375.45694019047L756.2519520357338 375.45694019047Q759.2366188053479 375.2612243367248 761.1693128610816 374.91872159267075Q763.1264713985333 374.57621884861663 764.0071927403867 374.2092516228444L764.0071927403867 374.2092516228444Q770.6859962494411 370.68636625543115 770.6859962494411 363.81184689263154L770.6859962494411 363.81184689263154Q770.6859962494411 360.2889615252182 768.7533021937074 356.42357341375083L768.7533021937074 356.42357341375083Q763.2977227705604 346.3931359093101 741.4509405962542 346.3931359093101L741.4509405962542 346.3931359093101Q733.5244485195743 346.3931359093101 725.059737845095 348.0567206661442Q716.619491652334 349.7203054229783 709.035502319708 352.99854597321007Q701.4759774688004 356.25232204172374 696.1916494176803 361.1696828670716L696.1916494176803 361.1696828670716Q687.0174687733748 369.63439354155076 687.0174687733748 376.33766153232335L687.0174687733748 376.33766153232335Q687.0174687733748 381.4262737296981 692.0326875255952 385.3895197680381Q697.0723707595337 389.35276580637804 707.2740596360014 391.3099243438299L707.2740596360014 391.3099243438299L728.0688690964273 395.1753124552973Q740.0320006566017 397.47497373680324 747.4447386172005 401.9519738912243Q754.8330120960812 406.4534385273636 754.8330120960812 415.60315468995094L754.8330120960812 415.60315468995094Q754.8330120960812 423.7008981386579 750.7963726125868 430.74666887348457Q746.7352686473743 437.7924396083112 739.9586072114472 443.3458769583308Q733.1819457755203 448.89931430835037 724.545983729014 452.5934510477908L724.545983729014 452.5934510477908Q704.9988628362137 461.229413094297 678.3815067268686 461.229413094297L678.3815067268686 461.229413094297Q675.0543372132005 461.229413094297 671.7027032178141 461.05816172227Q668.3510692224279 460.88691035024294 665.1706865990686 460.51994312447073L665.1706865990686 460.51994312447073Q667.6415992526016 461.93888306412333 671.4335939189145 463.3333585220577Q675.2255885852276 464.7522984617103 680.1429494105753 465.9755225476177L680.1429494105753 465.9755225476177Q680.6811680083745 466.1712384013629 680.6811680083745 466.684992517444L680.6811680083745 466.684992517444Q680.6811680083745 468.27518382912365 676.9870312689342 468.27518382912365ZM653.7213091549754 454.7218609572696L653.7213091549754 454.7218609572696Q648.9751997016547 449.43753290614967 646.3330356760946 443.78623762925747L646.3330356760946 443.78623762925747Q642.4676475646272 434.97902421072416 640.5104890271755 422.13517130869644L640.5104890271755 422.13517130869644Q639.116013569241 412.7897392923639 637.5258222575615 412.7897392923639L637.5258222575615 412.7897392923639Q636.1068823179088 412.7897392923639 633.7338275912484 414.8936847201246Q631.3607728645881 417.0220946296035 631.3607728645881 423.8966139924031L631.3607728645881 423.8966139924031Q631.3607728645881 437.27868549223007 640.8774562529477 447.13787162464376L640.8774562529477 447.13787162464376Q645.6235657062684 452.07969693170963 653.7213091549754 454.7218609572696ZM786.5389804028011 471.969320568564L786.5389804028011 471.969320568564Q759.4078701773749 469.69412376877625 759.4078701773749 444.1532048550297L759.4078701773749 444.1532048550297Q759.4078701773749 428.9852261897779 768.9245535657344 412.0802693225376L768.9245535657344 412.0802693225376Q774.5758488426267 401.87858044606986 783.1139529622603 392.19064568568325Q791.652057081894 382.50271092529664 801.7803525132073 374.6496122937711Q811.9086479445206 366.8209781439637 822.5751619736332 362.24612006267006Q833.2172115210276 357.6467974996582 843.0763976534412 357.6467974996582L843.0763976534412 357.6467974996582Q860.5195731184808 357.6467974996582 860.5195731184808 370.5151148834041L860.5195731184808 370.5151148834041Q860.5195731184808 379.15107692991035 855.2352450673608 389.7197330321503L855.2352450673608 389.7197330321503Q849.9509170162409 400.28838913439023 844.4953375930938 403.1018045319773L844.4953375930938 403.1018045319773Q843.9571189952945 403.2730559040043 843.2721135071863 403.2730559040043L843.2721135071863 403.2730559040043Q842.7338949093871 403.2730559040043 842.7338949093871 402.9305531599502L842.7338949093871 402.9305531599502L848.5564415583063 393.41386977159067Q854.5257750975345 383.554683639177 854.5257750975345 376.1419456785781L854.5257750975345 376.1419456785781Q854.5257750975345 370.8576176274582 851.7123596999475 366.11150817413744Q848.8989443023604 361.3653987208167 841.6819221955068 361.3653987208167L841.6819221955068 361.3653987208167Q832.8747087769734 361.3653987208167 823.6271346875135 366.28275954616447Q814.3795605980536 371.2245848532304 805.7435985515473 379.3223283019374Q797.107636505041 387.42007175064435 790.0618657702144 397.2058644379036Q783.0160950353877 406.96719264344466 778.7837396981481 416.48387603180424L778.7837396981481 416.48387603180424Q769.8052749075878 436.7404668944308 769.8052749075878 449.2418170524045L769.8052749075878 449.2418170524045Q769.8052749075878 468.1039324570966 789.009893056334 468.1039324570966L789.009893056334 468.1039324570966Q807.3337898632269 468.1039324570966 838.6727909441746 444.49570759908374L838.6727909441746 444.49570759908374Q845.9142775327464 439.04012817593673 857.2657970499671 429.1809420435231Q868.6173165671878 419.2972914293913 883.9565466044666 405.205749959738L883.9565466044666 405.205749959738Q881.8281366949877 405.4014658134832 878.6722185533466 405.6461106306646Q875.4918359299874 405.91521992956433 871.2594805927478 406.6246898993906L871.2594805927478 406.6246898993906Q869.4980379090412 406.96719264344466 867.9323110790796 407.2363019423443Q866.3421197673999 407.5054112412439 864.9231798277474 407.5054112412439L864.9231798277474 407.5054112412439Q861.4002944603341 407.16290849718985 861.9385130581334 405.74396855753724L861.9385130581334 405.74396855753724Q862.6479830279596 399.2364164205099 868.6173165671878 399.2364164205099L868.6173165671878 399.2364164205099Q874.097360472053 399.921421908618 878.9413278522462 400.28838913439023Q883.7852952324395 400.6308918784443 888.1889019417063 400.6308918784443L888.1889019417063 400.6308918784443Q895.0389568227877 394.29459111344397 906.4149408217265 382.9430715962233Q917.7664603389471 371.56708759728446 933.44819312028 355.0046334740982L933.44819312028 355.0046334740982Q953.7047839829065 333.6960698975913 958.1083906921733 333.6960698975913L958.1083906921733 333.6960698975913Q960.041084747907 333.6960698975913 960.041084747907 337.21895526500464L960.041084747907 337.21895526500464Q960.041084747907 338.6378952046572 959.6985820038528 340.74184063241796Q959.3316147780806 342.8702505418968 958.6466092899725 345.68366593948383L958.6466092899725 345.68366593948383Q956.8851666062658 352.36246944853826 954.928008068814 353.7814093881908L954.928008068814 353.7814093881908Q949.4724286456669 357.6467974996582 945.8761498330992 363.73845344747707Q942.2554065388133 369.8056449135778 938.5612697993729 377.21838287417665L938.5612697993729 377.21838287417665Q934.8671330599327 384.7779077250844 931.784608363446 390.6738478191581Q928.7020836669594 396.5942523949499 926.2311710134263 401.1691104762436L926.2311710134263 401.1691104762436L943.3073792526936 400.8021432504714Q949.6436800176941 400.8021432504714 949.6436800176941 401.68286459232473L949.6436800176941 401.68286459232473Q949.6436800176941 401.87858044606986 949.30117727364 402.221083190124L949.30117727364 402.221083190124Q946.3165105040259 404.1537772458576 923.9315097319204 405.74396855753724L923.9315097319204 405.74396855753724Q907.5647714624795 437.6211882362841 907.5647714624795 449.43753290614967L907.5647714624795 449.43753290614967Q907.5647714624795 457.53527635485665 912.6533836598542 457.53527635485665L912.6533836598542 457.53527635485665Q914.6105421973061 457.53527635485665 917.5952089669202 455.0643637013237L917.5952089669202 455.0643637013237Q920.4086243645072 452.76470241981775 921.1180943343334 452.76470241981775L921.1180943343334 452.76470241981775Q921.1180943343334 452.4221996757637 921.2893457063606 452.5934510477908Q921.4605970783875 452.76470241981775 921.1180943343334 452.76470241981775L921.1180943343334 452.76470241981775Q920.2373729924801 455.945085043177 915.931624210086 458.4893911418644Q911.6014109459738 461.05816172227 906.8553014926531 461.05816172227L906.8553014926531 461.05816172227Q902.4516947833865 461.05816172227 901.032754843734 458.2447463246829Q899.6382793857995 455.4068664453778 899.6382793857995 450.48950562003L899.6382793857995 450.48950562003Q899.6382793857995 432.7038274109364 913.1916022576535 405.205749959738L913.1916022576535 405.205749959738L892.0542900531736 405.74396855753724Q868.4460651951607 428.8139748177509 844.6665889651208 446.2571502827904L844.6665889651208 446.2571502827904Q806.7955712654277 473.73076325227066 786.5389804028011 471.969320568564ZM895.2346726765328 400.4596405064173L914.7817935693331 400.6308918784443Q916.8857389970938 396.5942523949499 923.2220397620941 385.92773836583734Q929.5828050088127 375.2612243367248 940.3227124830796 358.1850160974575L940.3227124830796 358.1850160974575L895.2346726765328 400.4596405064173ZM1035.269366031212 470.7460964826566L1035.269366031212 470.7460964826566Q1025.3857154170805 470.7460964826566 1015.0127751685856 467.83482315819697Q1004.6153704383726 464.92354983373735 995.3677963489126 459.2967190385633Q986.1202222594527 453.6454237616711 979.4169542686802 445.91464753873635L979.4169542686802 445.91464753873635Q965.3254127990269 460.00618900838964 952.6528112690262 460.00618900838964L952.6528112690262 460.00618900838964Q946.1207946502807 460.00618900838964 942.9648765086397 456.21419434207667Q939.7844938852804 452.4221996757637 939.7844938852804 446.42840165481743L939.7844938852804 446.42840165481743Q939.7844938852804 435.3459914364964 948.2492045597596 420.3737286249898L948.2492045597596 420.3737286249898Q956.1756966364396 406.28218715533654 960.9218060897604 405.5727171855102L960.9218060897604 405.5727171855102Q964.4446914571736 405.5727171855102 968.138828196614 412.7897392923639L968.138828196614 412.7897392923639L979.2457028966531 434.2695542408979Q988.5911349129857 421.7682040829242 998.7928237894535 407.3341598692169L998.7928237894535 407.3341598692169Q984.3587795757461 400.8021432504714 984.3587795757461 388.47204446452474L984.3587795757461 388.47204446452474Q984.3587795757461 383.18771641340476 986.9030856744334 378.71071625898367Q989.4718562548389 374.2092516228444 993.5084957383335 371.3958362252574Q997.569599703546 368.5824208276704 1001.8019550407857 368.5824208276704L1001.8019550407857 368.5824208276704Q1007.6000372079867 368.5824208276704 1010.2422012335468 374.0380002508174L1010.2422012335468 374.0380002508174Q1010.6091684593189 374.57621884861663 1010.3400591604193 375.0899729646978Q1010.0709498615197 375.628191562497 1009.7284471174655 375.45694019047L1009.7284471174655 375.45694019047Q1008.4807585498401 374.0380002508174 1006.2055617500523 372.98602753693706Q1003.9059004685464 371.93405482305667 1001.9732064128127 371.93405482305667L1001.9732064128127 371.93405482305667Q998.2790696733723 371.93405482305667 995.1965449768857 374.82086366579813Q992.114020280399 377.73213699025774 990.4259710418469 381.6219895834433Q988.7623862850128 385.48737769491066 989.1048890290667 388.47204446452474L989.1048890290667 388.47204446452474Q989.1048890290667 397.47497373680324 1001.8019550407857 404.1537772458576L1001.8019550407857 404.1537772458576Q1004.7866218103998 399.750170536591 1008.3095071778131 394.5637004123436Q1011.8323925452264 389.35276580637804 1015.8934965104389 383.38343226714994L1015.8934965104389 383.38343226714994Q1050.9266343308268 331.9346272138846 1074.1923564447857 331.9346272138846L1074.1923564447857 331.9346272138846Q1090.5590947142268 331.9346272138846 1090.5590947142268 347.27385725116346L1090.5590947142268 347.27385725116346Q1090.5590947142268 361.1696828670716 1077.0057718423727 380.03179827176365L1077.0057718423727 380.03179827176365Q1070.3025038516002 389.35276580637804 1060.1008149751324 396.7655037669769Q1049.8746616169465 404.1537772458576 1038.5231420997259 408.48399050996983Q1027.147158100787 412.7897392923639 1016.5785019985472 412.7897392923639L1016.5785019985472 412.7897392923639Q1014.1320538267323 412.7897392923639 1011.7345346183538 412.5206299934643Q1009.3614798916933 412.25152069456465 1007.4287858359596 411.5665152064565L1007.4287858359596 411.5665152064565Q1002.8539277546661 417.53584874568463 996.8601297337198 424.9485867062835Q990.8663317127734 432.3368601851642 983.6493096059198 441.31532497572454L983.6493096059198 441.31532497572454Q986.8296922292791 445.71893168499116 992.7256323233528 450.1225383942578Q998.6215724174265 454.52614510352447 1006.0098458963072 457.9756370257833Q1013.4225838569059 461.40066446632403 1020.6396059637597 463.52907437580296Q1027.8566280706132 465.6330198035636 1033.6791747195325 465.6330198035636L1033.6791747195325 465.6330198035636Q1040.357978228587 465.6330198035636 1046.009273505479 464.1406864187566Q1051.6361043006532 462.6483530339496 1055.1589896680664 459.3701124837177Q1058.6818750354798 456.1163364152041 1058.6818750354798 450.83200836408406L1058.6818750354798 450.83200836408406Q1058.6818750354798 450.1225383942578 1058.6818750354798 449.43753290614967Q1058.6818750354798 448.7280629363234 1058.5106236634529 448.01859296649707L1058.5106236634529 448.01859296649707Q1058.5106236634529 447.676090222443 1058.4127657365802 447.4803743686978Q1058.3393722914257 447.3091229966708 1058.3393722914257 447.13787162464376L1058.3393722914257 447.13787162464376Q1058.3393722914257 445.37642894093705 1059.391345005306 445.37642894093705L1059.391345005306 445.37642894093705Q1061.1527876890127 445.37642894093705 1062.204760402893 448.11645089336963Q1063.2567331167734 450.83200836408406 1063.2567331167734 452.4221996757637L1063.2567331167734 452.4221996757637Q1063.2567331167734 457.8777790989107 1059.048842261252 462.01227650927774Q1054.8164869240125 466.1712384013629 1048.3823282321396 468.4464352011507Q1041.9481695402667 470.7460964826566 1035.269366031212 470.7460964826566ZM1015.3552779126396 408.21488121107024L1015.3552779126396 408.21488121107024Q1024.3337427032 408.21488121107024 1034.5598960613859 404.0803838007032Q1044.7615849378535 399.921421908618 1053.8379076552865 393.144760472691Q1062.9142303727194 386.368099036764 1068.5410611678935 378.4416069600841L1068.5410611678935 378.4416069600841Q1084.5897611749986 356.0810706696967 1084.5897611749986 344.43597737185826L1084.5897611749986 344.43597737185826Q1084.5897611749986 339.51861654651054 1081.7518812956935 337.21895526500464Q1078.9384658981064 334.94375846521683 1074.901826414612 334.94375846521683L1074.901826414612 334.94375846521683Q1066.0946129960787 334.94375846521683 1053.0550442403057 349.7203054229783L1053.0550442403057 349.7203054229783Q1048.9939402750933 354.49087935801714 1042.3885302111933 363.37148622170486Q1035.7831201472932 372.27655756711073 1026.804655356733 385.31612632288363L1026.804655356733 385.31612632288363Q1023.2817699893196 390.4292030019766 1019.04941465208 396.05603379715063Q1014.8170593148404 401.68286459232473 1010.2422012335468 407.67666261327093L1010.2422012335468 407.67666261327093Q1012.7131138870797 408.21488121107024 1015.3552779126396 408.21488121107024ZM952.9953140130804 455.23561507335074L952.9953140130804 455.23561507335074Q956.3469480084666 455.23561507335074 960.4814454188336 452.8625603466904Q964.6159428292005 450.48950562003 968.5057954223862 446.9666202526167Q972.3711835338536 443.44373488520336 974.8420961873865 440.0921008898171L974.8420961873865 440.0921008898171Q972.3711835338536 436.5692155224038 969.5577681362665 431.62739021533787Q966.7443527386795 426.7100293899901 963.3927187432932 420.1780127712446L963.3927187432932 420.1780127712446Q959.3316147780806 411.73776657848356 957.22766935032 412.61848792033686L957.22766935032 412.61848792033686Q954.0472867269607 413.13224203641795 950.3531499875204 423.8966139924031L950.3531499875204 423.8966139924031Q946.65901324808 434.6365214666701 946.65901324808 443.9574890012845L946.65901324808 443.9574890012845Q946.65901324808 455.23561507335074 952.9953140130804 455.23561507335074ZM1082.1188485214657 471.969320568564L1082.1188485214657 471.969320568564Q1054.9877382960394 469.69412376877625 1054.9877382960394 444.1532048550297L1054.9877382960394 444.1532048550297Q1054.9877382960394 428.9852261897779 1064.5044216843992 412.0802693225376L1064.5044216843992 412.0802693225376Q1070.131252479573 401.87858044606986 1078.6693565992068 392.19064568568325Q1087.2319252005586 382.50271092529664 1097.360220631872 374.6496122937711Q1107.4885160631852 366.8209781439637 1118.1305656105797 362.24612006267006Q1128.7970796396921 357.6467974996582 1138.6562657721058 357.6467974996582L1138.6562657721058 357.6467974996582Q1156.0994412371454 357.6467974996582 1156.0994412371454 370.5151148834041L1156.0994412371454 370.5151148834041Q1156.0994412371454 379.15107692991035 1150.8151131860254 389.7197330321503L1150.8151131860254 389.7197330321503Q1145.5307851349053 400.28838913439023 1140.0752057117584 403.1018045319773L1140.0752057117584 403.1018045319773Q1139.5369871139592 403.2730559040043 1138.8275171441328 403.2730559040043L1138.8275171441328 403.2730559040043Q1138.3137630280517 403.2730559040043 1138.3137630280517 402.9305531599502L1138.3137630280517 402.9305531599502L1144.111845195253 393.41386977159067Q1150.105643216199 383.554683639177 1150.105643216199 376.1419456785781L1150.105643216199 376.1419456785781Q1150.105643216199 370.8576176274582 1147.292227818612 366.11150817413744Q1144.478812421025 361.3653987208167 1137.2373258324533 361.3653987208167L1137.2373258324533 361.3653987208167Q1128.43011241392 361.3653987208167 1119.18253832446 366.28275954616447Q1109.934964235 371.2245848532304 1101.323466670212 379.3223283019374Q1092.6875046237055 387.42007175064435 1085.6417338888791 397.2058644379036Q1078.5959631540525 406.96719264344466 1074.3636078168129 416.48387603180424L1074.3636078168129 416.48387603180424Q1065.3851430262523 436.7404668944308 1065.3851430262523 449.2418170524045L1065.3851430262523 449.2418170524045Q1065.3851430262523 468.1039324570966 1084.5897611749986 468.1039324570966L1084.5897611749986 468.1039324570966Q1102.8891935001734 468.1039324570966 1134.252659062839 444.49570759908374L1134.252659062839 444.49570759908374Q1141.4696811696926 439.04012817593673 1152.8456651686315 429.1809420435231Q1164.1971846858523 419.2972914293913 1179.5119502414132 405.205749959738L1179.5119502414132 405.205749959738Q1177.4080048136523 405.4014658134832 1174.227622190293 405.6461106306646Q1171.071704048652 405.91521992956433 1166.8393487114122 406.6246898993906L1166.8393487114122 406.6246898993906Q1165.0779060277057 406.96719264344466 1163.487714716026 407.2363019423443Q1161.8975234043464 407.5054112412439 1160.503047946412 407.5054112412439L1160.503047946412 407.5054112412439Q1156.9801625789987 407.16290849718985 1157.4939166950799 405.74396855753724L1157.4939166950799 405.74396855753724Q1158.203386664906 399.2364164205099 1164.1971846858523 399.2364164205099L1164.1971846858523 399.2364164205099Q1169.6527641089992 399.921421908618 1174.4967314891926 400.28838913439023Q1179.340698869386 400.6308918784443 1183.7443055786525 400.6308918784443L1183.7443055786525 400.6308918784443Q1190.6188249414522 394.29459111344397 1201.970344458673 382.9430715962233Q1213.346328457612 371.56708759728446 1229.0280612389447 355.0046334740982L1229.0280612389447 355.0046334740982Q1249.2846521015713 333.6960698975913 1253.6882588108379 333.6960698975913L1253.6882588108379 333.6960698975913Q1255.6209528665715 333.6960698975913 1255.6209528665715 337.21895526500464L1255.6209528665715 337.21895526500464Q1255.6209528665715 338.6378952046572 1255.253985640799 340.74184063241796Q1254.9114828967452 342.8702505418968 1254.2020129269188 345.68366593948383L1254.2020129269188 345.68366593948383Q1252.4405702432123 352.36246944853826 1250.5078761874786 353.7814093881908L1250.5078761874786 353.7814093881908Q1245.0522967643317 357.6467974996582 1241.4315534700456 363.73845344747707Q1237.835274657478 369.8056449135778 1234.1166734363194 377.21838287417665L1234.1166734363194 377.21838287417665Q1230.422536696879 384.7779077250844 1227.3400120003926 390.6738478191581Q1224.2574873039057 396.5942523949499 1221.7865746503728 401.1691104762436L1221.7865746503728 401.1691104762436L1238.8872473713584 400.8021432504714Q1245.2235481363587 400.8021432504714 1245.2235481363587 401.68286459232473L1245.2235481363587 401.68286459232473Q1245.2235481363587 401.87858044606986 1244.8810453923045 402.221083190124L1244.8810453923045 402.221083190124Q1241.8719141409724 404.1537772458576 1219.5113778505852 405.74396855753724L1219.5113778505852 405.74396855753724Q1203.120175099426 437.6211882362841 1203.120175099426 449.43753290614967L1203.120175099426 449.43753290614967Q1203.120175099426 457.53527635485665 1208.233251778519 457.53527635485665L1208.233251778519 457.53527635485665Q1210.1659458342524 457.53527635485665 1213.1750770855847 455.0643637013237L1213.1750770855847 455.0643637013237Q1215.9884924831717 452.76470241981775 1216.6979624529981 452.76470241981775L1216.6979624529981 452.76470241981775Q1216.6979624529981 452.4221996757637 1216.869213825025 452.5934510477908Q1217.040465197052 452.76470241981775 1216.6979624529981 452.76470241981775L1216.6979624529981 452.76470241981775Q1215.8172411111448 455.945085043177 1211.4870278470326 458.4893911418644Q1207.1812790646384 461.05816172227 1202.4107051295996 461.05816172227L1202.4107051295996 461.05816172227Q1198.007098420333 461.05816172227 1196.6126229623985 458.2447463246829Q1195.193683022746 455.4068664453778 1195.193683022746 450.48950562003L1195.193683022746 450.48950562003Q1195.193683022746 432.7038274109364 1208.7714703763181 405.205749959738L1208.7714703763181 405.205749959738L1187.6341581718382 405.74396855753724Q1164.0259333138251 428.8139748177509 1140.2464570837856 446.2571502827904L1140.2464570837856 446.2571502827904Q1102.3754393840923 473.73076325227066 1082.1188485214657 471.969320568564ZM1190.7900763134794 400.4596405064173L1210.3371972062796 400.6308918784443Q1212.4656071157583 396.5942523949499 1218.8019078807588 385.92773836583734Q1225.138208645759 375.2612243367248 1235.878116120026 358.1850160974575L1235.878116120026 358.1850160974575L1190.7900763134794 400.4596405064173ZM1367.9863173980254 463.1621071500307L1367.9863173980254 463.1621071500307Q1363.0689565726777 463.1621071500307 1360.4267925471179 459.2967190385633Q1357.7846285215578 455.4068664453778 1357.7846285215578 450.1225383942578L1357.7846285215578 450.1225383942578Q1357.7846285215578 439.9208495177901 1367.105596056172 422.3064226807235L1367.105596056172 422.3064226807235Q1360.5980439191446 422.82017679680456 1354.0904917821174 422.82017679680456L1354.0904917821174 422.82017679680456Q1349.3199178470786 422.82017679680456 1336.1090977192787 422.3064226807235L1336.1090977192787 422.3064226807235L1313.5773100568642 421.5969527108972Q1301.2472112709177 441.31532497572454 1293.4919705662646 457.53527635485665L1293.4919705662646 457.53527635485665Q1291.1923092847587 462.2813858081774 1287.3269211732913 462.2813858081774L1287.3269211732913 462.2813858081774Q1284.6847571477313 462.2813858081774 1284.6847571477313 459.8104731546444L1284.6847571477313 459.8104731546444Q1284.6847571477313 458.0490304709378 1285.7367298616118 455.945085043177L1285.7367298616118 455.945085043177Q1288.7213966312258 449.43753290614967 1293.5653640114192 440.8015708596434Q1298.4093313916126 432.1656088131371 1304.9413480103578 421.42570133887017L1304.9413480103578 421.42570133887017Q1290.4828393149326 421.42570133887017 1285.7367298616118 422.6489254247776L1285.7367298616118 422.6489254247776Q1277.8102377849318 424.5816194805113 1273.9448496734647 430.57541750145754L1273.9448496734647 430.57541750145754Q1272.525909733812 432.5081115571912 1271.6451883919585 432.7038274109364L1271.6451883919585 432.7038274109364Q1270.5932156780782 432.87507878296344 1270.5932156780782 431.82310606908305L1270.5932156780782 431.82310606908305Q1270.5932156780782 430.94238472722975 1271.3026856479044 430.2329147574034L1271.3026856479044 430.2329147574034Q1277.9814891569588 421.2544499668431 1284.8560085197585 417.7315645994298L1284.8560085197585 417.7315645994298Q1291.901779254585 414.0129633782713 1309.3449547196246 414.55118197607055L1309.3449547196246 414.55118197607055Q1320.2561135659187 398.15997922491135 1339.460731714665 365.9402568021104L1339.460731714665 365.9402568021104Q1346.6777538215185 352.36246944853826 1346.6777538215185 343.92222325577717L1346.6777538215185 343.92222325577717Q1346.6777538215185 330.173184530178 1328.1826056425987 330.173184530178L1328.1826056425987 330.173184530178Q1305.6508179801842 330.173184530178 1286.274948459411 341.9895292000435L1286.274948459411 341.9895292000435Q1276.048795101225 348.3258299650438 1267.070330310665 357.91590679855784Q1258.0918655201046 367.53044811379004 1252.6118216152393 378.34374903321145Q1247.1562421920923 389.1815144343511 1247.1562421920923 399.57891916456396L1247.1562421920923 399.57891916456396Q1247.1562421920923 415.97012191572315 1262.4954722293712 415.97012191572315L1262.4954722293712 415.97012191572315Q1269.3455271104528 415.97012191572315 1274.6298551615726 412.69188136549127Q1279.9141832126927 409.4381052969776 1283.975287177905 404.3250286178847L1283.975287177905 404.3250286178847Q1291.901779254585 394.465842485471 1291.901779254585 384.7779077250844L1291.901779254585 384.7779077250844Q1291.901779254585 379.3223283019374 1289.0883638569983 375.79944293452405L1289.0883638569983 375.79944293452405Q1288.7213966312258 375.45694019047 1288.7213966312258 374.91872159267075L1288.7213966312258 374.91872159267075Q1288.7213966312258 373.69549750676333 1290.1403365708786 373.69549750676333L1290.1403365708786 373.69549750676333Q1291.0210579127317 373.69549750676333 1291.1923092847587 374.2092516228444L1291.1923092847587 374.2092516228444Q1294.715194652172 378.78410970413813 1294.715194652172 385.1448749508566L1294.715194652172 385.1448749508566Q1294.715194652172 395.8847824251236 1285.9079812336388 407.16290849718985L1285.9079812336388 407.16290849718985Q1280.452401810492 413.8417120062443 1274.7277130884452 416.9242367027309Q1269.0030243663984 420.00676139921757 1261.6147508875179 420.00676139921757L1261.6147508875179 420.00676139921757Q1250.5078761874786 420.00676139921757 1244.3428267945053 413.0588485912635Q1238.177777401532 406.0864713015913 1238.177777401532 395.1753124552973L1238.177777401532 395.1753124552973Q1238.177777401532 380.37430101581776 1247.0828487469378 367.1634808880178Q1255.9634556106255 353.95266076021784 1269.5412429641976 344.43597737185826L1269.5412429641976 344.43597737185826Q1296.305385963852 325.59832644888434 1329.234578356479 326.47904779073764L1329.234578356479 326.47904779073764Q1336.2803490913057 326.65029916276467 1342.445398484279 329.02335388942504Q1348.6104478772522 331.4208730978035 1352.4024425435653 335.8978732522246Q1356.194437209878 340.39933788836385 1356.194437209878 347.0781413974182L1356.194437209878 347.0781413974182Q1356.194437209878 351.13924536263085 1354.7021038250712 355.88535481595153Q1353.209770440264 360.6559287509904 1349.6868850728508 365.9402568021104L1349.6868850728508 365.9402568021104L1317.7852009123856 414.8936847201246Q1321.308086279799 415.0894005738698 1326.9593815566911 415.5297612447965Q1332.5862123518652 415.97012191572315 1340.341453056518 416.85084325757646L1340.341453056518 416.85084325757646Q1346.8490051935455 417.53584874568463 1351.2526119028123 417.8049580445842Q1355.6562186120789 418.0740673434839 1357.9558798935848 418.0740673434839L1357.9558798935848 418.0740673434839Q1362.0169838587974 418.0740673434839 1364.9037927015386 418.0740673434839Q1367.8150660259985 418.0740673434839 1369.576508709705 417.90281597145685L1369.576508709705 417.90281597145685L1376.2797767004777 406.79594127141763Q1385.086990119011 392.19064568568325 1394.6770669525251 379.0532190030378Q1404.291608267757 365.9402568021104 1414.664548516252 354.31962798599005L1414.664548516252 354.31962798599005Q1438.2727733742647 328.2404904744443 1455.006478869478 322.246692453498L1455.006478869478 322.246692453498Q1455.544697467277 322.07544108147096 1456.2541674371034 322.07544108147096L1456.2541674371034 322.07544108147096Q1457.3061401509842 322.07544108147096 1457.3061401509842 323.49438102112356L1457.3061401509842 323.49438102112356Q1457.3061401509842 324.00813513720465 1456.7679215531846 324.3751023629769L1456.7679215531846 324.3751023629769Q1451.3123421300377 327.35976913259094 1443.4837079802303 334.84590053834427Q1435.6306093487049 342.33203194409754 1425.233204618492 354.31962798599005L1425.233204618492 354.31962798599005Q1414.322045772198 366.99222951599074 1404.9766137558654 379.66483104599143Q1395.655646221251 392.3618970577103 1388.071656888625 405.205749959738L1388.071656888625 405.205749959738L1381.1971375258254 416.85084325757646Q1389.3193454562504 415.77440606197797 1392.8422308236638 412.7897392923639L1392.8422308236638 412.7897392923639Q1393.5272363117722 412.25152069456465 1394.0654549095714 413.32795789016313L1394.0654549095714 413.32795789016313Q1394.6036735073706 414.55118197607055 1393.8942035375442 415.0894005738698L1393.8942035375442 415.0894005738698Q1388.6098754864245 419.12604005736426 1378.9219407260377 420.88748274107087L1378.9219407260377 420.88748274107087Q1366.5918419400912 443.78623762925747 1366.5918419400912 453.13166964558997L1366.5918419400912 453.13166964558997Q1366.5918419400912 459.1254676665363 1371.7049186191841 459.1254676665363L1371.7049186191841 459.1254676665363Q1375.227803986597 459.1254676665363 1379.8760555130455 456.72794845815775Q1384.5487715212118 454.3548937314974 1387.3621869187987 451.37022696188336L1387.3621869187987 451.37022696188336Q1387.7291541445709 451.00325973611115 1387.900405516598 451.00325973611115L1387.900405516598 451.00325973611115Q1388.4386241143973 451.00325973611115 1388.4386241143973 452.07969693170963L1388.4386241143973 452.07969693170963Q1388.242908260652 453.30292101761705 1387.557902772544 454.0123909874433L1387.557902772544 454.0123909874433Q1385.429492863065 456.1163364152041 1381.9066074956518 458.2447463246829Q1378.3837221282386 460.3486917524437 1374.5917274619253 461.76763169209624Q1370.8241972773305 463.1621071500307 1367.9863173980254 463.1621071500307Z " fill="#8aaae5" transform="matrix(0.6004228759552137,0,0,0.6004228759552137,0,61.58679509335275)"/></g></svg>